<svg width="1200" height="781" viewBox="0 0 1200 781" fill="none" xmlns="http://www.w3.org/2000/svg">
  <rect width="1200" height="781" rx="36" fill="#0B0F14"/>
  <rect x="1" y="1" width="1198" height="779" rx="35" stroke="#1F2937" stroke-width="2"/>

  <defs>
    <radialGradient id="glowA" cx="0" cy="0" r="1" gradientUnits="userSpaceOnUse" gradientTransform="translate(1010 140) rotate(132) scale(520 430)">
      <stop stop-color="#22C55E" stop-opacity="0.42"/>
      <stop offset="0.42" stop-color="#14B8A6" stop-opacity="0.22"/>
      <stop offset="1" stop-color="#0B0F14" stop-opacity="0"/>
    </radialGradient>
    <radialGradient id="glowB" cx="0" cy="0" r="1" gradientUnits="userSpaceOnUse" gradientTransform="translate(240 660) rotate(-26) scale(420 280)">
      <stop stop-color="#38BDF8" stop-opacity="0.28"/>
      <stop offset="1" stop-color="#0B0F14" stop-opacity="0"/>
    </radialGradient>
    <linearGradient id="line" x1="206" y1="418" x2="1002" y2="230" gradientUnits="userSpaceOnUse">
      <stop stop-color="#38BDF8" stop-opacity="0"/>
      <stop offset="0.35" stop-color="#2DD4BF" stop-opacity="0.48"/>
      <stop offset="0.67" stop-color="#22C55E" stop-opacity="0.72"/>
      <stop offset="1" stop-color="#22C55E" stop-opacity="0"/>
    </linearGradient>
    <linearGradient id="panel" x1="720" y1="126" x2="1048" y2="594" gradientUnits="userSpaceOnUse">
      <stop stop-color="#111827"/>
      <stop offset="1" stop-color="#0F172A"/>
    </linearGradient>
    <filter id="blur" x="-200" y="-200" width="1600" height="1181" filterUnits="userSpaceOnUse" color-interpolation-filters="sRGB">
      <feGaussianBlur stdDeviation="42"/>
    </filter>
  </defs>

  <rect width="1200" height="781" fill="url(#glowA)"/>
  <rect width="1200" height="781" fill="url(#glowB)"/>

  <g opacity="0.28">
    <path d="M80 154H1120" stroke="#1F2937"/>
    <path d="M80 254H1120" stroke="#1F2937"/>
    <path d="M80 354H1120" stroke="#1F2937"/>
    <path d="M80 454H1120" stroke="#1F2937"/>
    <path d="M80 554H1120" stroke="#1F2937"/>
    <path d="M80 654H1120" stroke="#1F2937"/>
    <path d="M164 90V694" stroke="#1F2937"/>
    <path d="M304 90V694" stroke="#1F2937"/>
    <path d="M444 90V694" stroke="#1F2937"/>
    <path d="M584 90V694" stroke="#1F2937"/>
    <path d="M724 90V694" stroke="#1F2937"/>
    <path d="M864 90V694" stroke="#1F2937"/>
    <path d="M1004 90V694" stroke="#1F2937"/>
  </g>

  <path d="M122 520C268 420 398 444 520 374C656 296 766 158 1078 226" stroke="url(#line)" stroke-width="3"/>
  <path d="M138 462C282 370 422 392 566 322C706 254 796 242 1058 330" stroke="#14B8A6" stroke-opacity="0.16" stroke-width="2"/>
  <path d="M132 578C318 498 436 534 590 450C758 358 872 398 1064 478" stroke="#38BDF8" stroke-opacity="0.14" stroke-width="2"/>

  <g filter="url(#blur)" opacity="0.7">
    <circle cx="944" cy="220" r="72" fill="#22C55E"/>
    <circle cx="830" cy="308" r="58" fill="#14B8A6"/>
  </g>

  <g transform="translate(760 190)">
    <rect width="300" height="400" rx="28" fill="url(#panel)" stroke="#263244"/>
    <rect x="22" y="26" width="256" height="58" rx="16" fill="#0B1220" stroke="#1F2937"/>
    <circle cx="48" cy="55" r="9" fill="#22C55E"/>
    <rect x="66" y="46" width="152" height="12" rx="6" fill="#D1D5DB" opacity="0.9"/>
    <rect x="66" y="64" width="92" height="8" rx="4" fill="#64748B"/>

    <rect x="22" y="112" width="256" height="58" rx="16" fill="#0B1220" stroke="#1F2937"/>
    <circle cx="48" cy="141" r="9" fill="#2DD4BF"/>
    <rect x="66" y="132" width="134" height="12" rx="6" fill="#D1D5DB" opacity="0.9"/>
    <rect x="66" y="150" width="110" height="8" rx="4" fill="#64748B"/>

    <rect x="22" y="198" width="256" height="58" rx="16" fill="#0B1220" stroke="#1F2937"/>
    <circle cx="48" cy="227" r="9" fill="#38BDF8"/>
    <rect x="66" y="218" width="166" height="12" rx="6" fill="#D1D5DB" opacity="0.9"/>
    <rect x="66" y="236" width="74" height="8" rx="4" fill="#64748B"/>

    <rect x="22" y="284" width="256" height="88" rx="16" fill="#082F2A" stroke="#115E59"/>
    <path d="M49 327L72 350L112 302" stroke="#5EEAD4" stroke-width="10" stroke-linecap="round" stroke-linejoin="round"/>
    <rect x="132" y="310" width="104" height="12" rx="6" fill="#CCFBF1"/>
    <rect x="132" y="332" width="74" height="8" rx="4" fill="#5EEAD4" opacity="0.8"/>
  </g>

  <text x="92" y="214" font-family="Inter, Arial, sans-serif" font-size="44" font-weight="850" fill="#99F6E4" letter-spacing="-0.3">OpenAI Codex</text>
  <text x="92" y="332" font-family="Inter, Arial, sans-serif" font-size="106" font-weight="950" fill="#FFFFFF" letter-spacing="-2">AI Agent</text>
  <text x="92" y="438" font-family="Inter, Arial, sans-serif" font-size="106" font-weight="950" fill="#FFFFFF" letter-spacing="-2">Workflow</text>
  <text x="96" y="512" font-family="Inter, Arial, sans-serif" font-size="44" font-weight="850" fill="#99F6E4" letter-spacing="0">Idea to Deploy</text>
</svg>
